<svg xmlns="http://www.w3.org/2000/svg" viewBox="0 0 259.22 241.54"><title>アセット 1</title><g id="レイヤー_2" data-name="レイヤー 2"><g id="レイヤー_1-2" data-name="レイヤー 1"><path d="M132.6,124c41-23.37,83.3-36,130.78-30.34,1.07-3.33,2.41-7,3.43-10.77,1.23-4.51,4.75-7.13,8.66-6.11,4.2,1.09,5.82,4,4.49,8.92-1.25,4.65-2.93,9.17-4.49,14,24,24.73,32.54,56.22,36.26,89.51,1.06,9.55.61,19.26,1.09,28.89a12.25,12.25,0,0,0,2,5.41c8.77,14.41,16.19,29.44,21,45.68a14.29,14.29,0,0,1,.85,4.38c-.14,4.41-3,6.66-7,7.08s-6-2.07-6.76-5.81c-3.26-15.11-10.29-28.62-17.25-41.76-7.52,5.23-14.32,10.49-21.64,14.89-8.53,5.12-18.23,6.16-28,5.59-6.59-.38-11.66-3.95-15.31-9.24-7.13-10.32-11.86-21.42-11.65-34.38.11-6.94,3.11-11.57,8.47-15.39,11.6-8.27,41.43-10.47,56.28,3.72a17.35,17.35,0,0,0,5,3.41c-2.58-32.11-8.17-63.12-29.33-90-1.08,2.07-2,3.56-2.66,5.13-10.6,23.33-20.66,46.93-32,69.89-4.8,9.7-12.26,18.09-18.56,27-1.34,1.9-3.11,3.52-4.3,5.5-7.4,12.23-18,20.8-30.66,27a13.81,13.81,0,0,0-1.77,1.56c5.2,7.2,9.87,14.9,15.76,21.51,6.37,7.15,13.83,13.35,20.93,19.85,3.74,3.44,2.86,7.83-2.66,9.15a11.29,11.29,0,0,1-8.62-1.84c-12.65-10.38-24.12-21.93-32.46-36.23-1-1.72-2.31-3.27-3.28-5-1.49-2.68-3.21-2.92-6.14-1.9-14.47,5-29.4,8-44.66,5.62a45.2,45.2,0,0,1-16.85-6.75c-21.84-13.9-28.22-32.85-21.62-59.51C85.71,169.3,98.77,149.5,118,134.34c2.69-2.13,2.66-4.14,1.83-6.9-6.08-20.22-9.66-40.79-8.54-62,.29-5.44,3.61-9.09,8.16-8.34,4.19.69,5.55,3.4,5.68,7.49.33,11,.41,22,1.69,32.87C127.82,106.11,130.47,114.59,132.6,124Zm125.28-19.36a29.75,29.75,0,0,0-4.07-1.25c-2.14-.3-4.3-.4-6.46-.54-38.94-2.66-73.72,10-106.88,28.84-3.58,2-4.77,4.09-3.25,8.32,10.25,28.48,20.18,57.08,30.37,85.58,1.47,4.11,3.76,7.92,6.38,13.33,7.11-5.68,13.88-10,19.27-15.69a172.5,172.5,0,0,0,18.62-23.39,220.36,220.36,0,0,0,15.87-28.19C238,149.7,247.7,127.41,257.88,104.67ZM159.61,243.23c-12.16-33.2-24.18-66-36.76-100.31-6.51,9-12.92,17-18.44,25.62-9.19,14.31-14.17,29.69-12.63,47.23,1.47,16.65,16.94,29.73,27.16,32C133.09,251,146.94,247.69,159.61,243.23ZM262.2,198c-5.07,1.34-10.29,2.31-15.14,4.22-1.81.72-3.7,3.55-3.93,5.59-1.25,11.32,2.81,21.31,9.26,30.29a10.61,10.61,0,0,0,6.91,4c15.82,1.21,27.35-6.4,36.24-18.77.7-1,1.12-3.13.55-3.87C287.52,208.39,278.64,197.62,262.2,198Z" transform="translate(-77.44 -56.99)"/></g></g></svg>